HIERARCHY
ROOT Hips
{
	OFFSET 0.00000 0.00000 0.00000
	CHANNELS 6 Xposition Yposition Zposition Zrotation Yrotation Xrotation 
	JOINT LHipJoint
	{
		OFFSET 0 0 0
		CHANNELS 3 Zrotation Yrotation Xrotation
		JOINT LeftUpLeg
		{
			OFFSET 1.57314 -1.85774 0.63783
			CHANNELS 3 Zrotation Yrotation Xrotation
			JOINT LeftLeg
			{
				OFFSET 2.57982 -7.08799 0.00000
				CHANNELS 3 Zrotation Yrotation Xrotation
				JOINT LeftFoot
				{
					OFFSET 2.63993 -7.25315 0.00000
					CHANNELS 3 Zrotation Yrotation Xrotation
					JOINT LeftToeBase
					{
						OFFSET 0.16864 -0.46332 2.12791
						CHANNELS 3 Zrotation Yrotation Xrotation
						End Site
						{
							OFFSET 0.00000 -0.00000 1.09718
						}
					}
				}
			}
		}
	}
	JOINT RHipJoint
	{
		OFFSET 0 0 0
		CHANNELS 3 Zrotation Yrotation Xrotation
		JOINT RightUpLeg
		{
			OFFSET -1.56006 -1.85774 0.63784
			CHANNELS 3 Zrotation Yrotation Xrotation
			JOINT RightLeg
			{
				OFFSET -2.54246 -6.98536 0.00000
				CHANNELS 3 Zrotation Yrotation Xrotation
				JOINT RightFoot
				{
					OFFSET -2.65791 -7.30256 0.00000
					CHANNELS 3 Zrotation Yrotation Xrotation
					JOINT RightToeBase
					{
						OFFSET -0.18435 -0.50650 2.16316
						CHANNELS 3 Zrotation Yrotation Xrotation
						End Site
						{
							OFFSET -0.00000 -0.00000 1.11780
						}
					}
				}
			}
		}
	}
	JOINT LowerBack
	{
		OFFSET 0 0 0
		CHANNELS 3 Zrotation Yrotation Xrotation
		JOINT Spine
		{
			OFFSET -0.00136 1.92812 -0.29638
			CHANNELS 3 Zrotation Yrotation Xrotation
			JOINT Spine1
			{
				OFFSET -0.00528 1.96223 -0.02928
				CHANNELS 3 Zrotation Yrotation Xrotation
				JOINT Neck
				{
					OFFSET 0 0 0
					CHANNELS 3 Zrotation Yrotation Xrotation
					JOINT Neck1
					{
						OFFSET -0.01015 1.75586 0.07797
						CHANNELS 3 Zrotation Yrotation Xrotation
						JOINT Head
						{
							OFFSET 0.05540 1.72452 0.04558
							CHANNELS 3 Zrotation Yrotation Xrotation
							End Site
							{
								OFFSET 0.02170 1.79958 0.00864
							}
						}
					}
				}
				JOINT LeftShoulder
				{
					OFFSET 0 0 0
					CHANNELS 3 Zrotation Yrotation Xrotation
					JOINT LeftArm
					{
						OFFSET 3.16292 1.29277 -0.65728
						CHANNELS 3 Zrotation Yrotation Xrotation
						JOINT LeftForeArm
						{
							OFFSET 5.52302 -0.00000 -0.00000
							CHANNELS 3 Zrotation Yrotation Xrotation
							JOINT LeftHand
							{
								OFFSET 3.58675 -0.00000 -0.00000
								CHANNELS 3 Zrotation Yrotation Xrotation
								JOINT LeftFingerBase
								{
									OFFSET 0 0 0
									CHANNELS 3 Zrotation Yrotation Xrotation
									JOINT LeftHandIndex1
									{
										OFFSET 0.53641 -0.00000 -0.00000
										CHANNELS 3 Zrotation Yrotation Xrotation
										End Site
										{
											OFFSET 0.43247 -0.00000 -0.00000
										}
									}
								}
								JOINT LThumb
								{
									OFFSET 0 0 0
									CHANNELS 3 Zrotation Yrotation Xrotation
									End Site
									{
										OFFSET 0.43907 -0.00000 0.43907
									}
								}
							}
						}
					}
				}
				JOINT RightShoulder
				{
					OFFSET 0 0 0
					CHANNELS 3 Zrotation Yrotation Xrotation
					JOINT RightArm
					{
						OFFSET -3.08296 1.43376 -0.52927
						CHANNELS 3 Zrotation Yrotation Xrotation
						JOINT RightForeArm
						{
							OFFSET -5.84780 -0.00000 0.00000
							CHANNELS 3 Zrotation Yrotation Xrotation
							JOINT RightHand
							{
								OFFSET -3.62717 -0.00000 -0.00000
								CHANNELS 3 Zrotation Yrotation Xrotation
								JOINT RightFingerBase
								{
									OFFSET 0 0 0
									CHANNELS 3 Zrotation Yrotation Xrotation
									JOINT RightHandIndex1
									{
										OFFSET -0.65052 -0.00000 -0.00000
										CHANNELS 3 Zrotation Yrotation Xrotation
										End Site
										{
											OFFSET -0.52446 -0.00000 -0.00000
										}
									}
								}
								JOINT RThumb
								{
									OFFSET 0 0 0
									CHANNELS 3 Zrotation Yrotation Xrotation
									End Site
									{
										OFFSET -0.53247 -0.00000 0.53247
									}
								}
							}
						}
					}
				}
			}
		}
	}
}
MOTION
Frames: 7
Frame Time: 0.0909091
0.00 0.00 0.00 0 0 0 0 0 0 -21 0 0 0 0 0 0 0 0 0 0 0 0 0 0 21 0 0 0 0 0 0 0 0 0 0 0 0 0 0 0 0 0 0 0 0 0 0 -16 0 0 21 0 0 11 0 0 0 -8 0 0 0 0 0 0 0 0 0 0 0 0 0 0 0 0 0 0 0 0 8 0 0 0 0 0 0 0 0 0 0 0 0 0 0 0 0 0
0.00 0.00 0.00 -4.5081 2.5225 7.1451 0.0000 0.0000 0.0000 -7.0243 -21.5902 -41.8727 7.8025 15.9721 51.8482 -0.0126 -5.3683 7.2568 0.5343 -4.6839 -13.0092 0.0000 0.0000 0.0000 30.7400 1.5085 26.4238 -0.2252 -3.0546 8.4308 -2.1545 -21.8628 28.5691 -1.0017 -6.3688 17.8584 5.2251 0.1022 15.4451 0.6433 1.1535 -0.5356 -2.5327 0.3213 -9.1922 -1.3503 -1.5995 -1.8999 2.8506 -1.9187 -10.4699 1.1902 -0.9911 -2.9690 -0.0000 0.0000 0.0000 -87.6752 35.4665 37.5958 122.4098 -55.6328 -87.6562 -0.0000 0.0000 -26.2414 37.4750 7.3444 5.5972 -7.1250 0.0000 -0.0000 9.2654 39.0447 -1.3733 -0.0000 0.0000 0.0000 74.7661 -2.1832 46.4252 -132.3147 52.0182 -95.6625 0.0000 -0.0000 -3.9594 -36.7200 27.1294 -18.7853 7.1250 -0.0000 -0.0000 -3.8141 2.5432 -3.9883
0.00 0.00 0.00 -5.5418 2.8068 6.6814 0.0000 0.0000 0.0000 -6.0835 -21.8410 -37.3582 3.9118 12.0421 35.8811 0.1280 -2.0982 7.8726 1.1093 -6.6917 -18.8050 0.0000 0.0000 0.0000 32.7577 1.2166 25.4267 -0.9249 -6.1271 17.1535 -2.2611 -13.4358 27.2667 -0.7644 -5.5834 15.5803 6.1972 0.4324 15.1291 0.5389 1.7129 -0.0320 -3.3070 0.5791 -8.3869 -0.3116 -2.0045 -2.7656 2.0493 -2.5089 -11.2242 0.7600 -1.2969 -3.0744 0.0000 0.0000 0.0000 -87.3234 34.1792 37.0156 123.0609 -55.4375 -88.1930 -0.0000 0.0000 -25.5802 33.3203 5.3087 3.4806 -7.1250 0.0000 -0.0000 5.5825 36.2768 -1.2020 0.0000 0.0000 0.0000 74.9994 -2.8765 47.1368 -130.7749 52.6782 -94.4434 0.0000 -0.0000 -3.8494 -35.8488 26.9691 -18.1424 7.1250 -0.0000 -0.0000 -3.3456 2.0908 -3.4713
0.00 0.00 0.00 -6.7380 1.1110 6.4597 0.0000 0.0000 0.0000 -5.2366 -20.0799 -31.9346 1.5514 7.8615 22.2943 0.1105 1.6188 5.9234 1.0931 -6.6442 -18.6654 0.0000 0.0000 0.0000 34.6868 2.6620 21.4404 -3.5263 -11.5019 33.9919 -2.1648 -10.1757 26.4415 -0.7803 -5.6395 15.7420 5.7091 1.1702 14.3706 0.7226 2.5119 1.1580 -2.9518 1.0705 -6.6205 -0.4300 -1.7987 -5.1724 2.4223 -2.1819 -12.1017 0.8740 -1.1309 -2.9397 0.0000 0.0000 0.0000 -87.3551 29.5398 36.6180 123.6270 -55.2633 -88.6587 -0.0000 0.0000 -25.8496 36.3984 7.1812 5.2654 -7.1250 0.0000 -0.0000 8.3126 38.7501 -1.2903 0.0000 0.0000 0.0000 75.3562 -3.1929 48.5121 -124.8094 54.8859 -89.6281 0.0000 -0.0000 -2.0382 -36.5584 24.1173 -16.8567 7.1250 -0.0000 -0.0000 -4.3443 -0.9207 -4.2864
0.00 0.00 0.00 -5.2709 1.7521 5.2689 0.0000 0.0000 0.0000 -10.0035 -16.3227 -28.7738 1.1617 6.8426 19.2498 0.1185 2.7732 6.1339 1.8050 -8.4475 -24.0818 0.0000 0.0000 0.0000 33.4849 1.7792 16.5793 -7.2097 -15.5059 49.6629 -2.0705 -13.4700 26.1398 -0.6930 -5.3218 14.8287 4.3969 0.8243 15.1727 -0.2688 1.8015 1.6062 -3.1462 0.7547 -6.6543 -0.0208 -1.6027 -4.4899 3.0723 -1.8558 -12.4927 1.0266 -1.0122 -3.2019 0.0000 0.0000 0.0000 -85.2699 25.9216 37.7545 123.4651 -55.3136 -88.5256 -0.0000 0.0000 -27.1597 36.3204 8.3281 6.0778 -7.1250 0.0000 -0.0000 8.3121 40.1416 -1.0035 0.0000 0.0000 0.0000 76.9283 -4.9676 48.5327 -117.9449 56.8331 -83.9437 0.0000 -0.0000 -2.2241 -36.9793 23.5441 -16.7405 7.1250 -0.0000 -0.0000 -4.7088 -1.4545 -4.6035
0.00 0.00 0.00 -2.2925 2.1114 4.0468 0.0000 0.0000 0.0000 -16.0329 -12.4037 -26.3417 1.5155 7.7742 22.0304 0.0322 -3.0253 5.7710 1.0106 -6.3963 -17.9387 0.0000 0.0000 0.0000 29.2977 0.3670 10.5462 -12.0222 -18.4000 66.0592 -2.3602 -16.9216 28.3796 -1.1793 -6.8923 19.3966 1.0455 0.7304 15.6080 -1.2334 1.0529 1.8676 -2.1263 0.4696 -6.7197 0.0374 -1.3853 -3.3648 3.3663 -1.5358 -12.1755 1.1177 -0.8715 -3.3024 0.0000 -0.0000 0.0000 -83.2602 21.7248 39.8957 123.5176 -55.2973 -88.5688 -0.0000 0.0000 -28.1954 38.8561 10.8205 8.6005 -7.1250 0.0000 -0.0000 10.7964 43.5055 -0.4032 0.0000 -0.0000 0.0000 77.7121 -7.3032 48.2189 -108.1734 58.7145 -75.6707 0.0000 -0.0000 -3.1571 -35.0114 26.2820 -17.2326 7.1250 -0.0000 -0.0000 -3.0000 1.0703 -3.0597
0.00 0.00 0.00 0.2647 5.1904 2.4216 0.0000 0.0000 0.0000 -20.8397 -12.8898 -23.4844 3.3962 11.3104 33.3339 -0.1512 -9.1545 -3.1012 0.3507 -3.8051 -10.5290 0.0000 0.0000 0.0000 23.1292 -4.6789 0.8130 -18.7940 -19.9651 86.4719 -1.1772 -20.3220 22.5386 -1.4838 -7.6961 21.7949 -0.8766 -0.5906 17.5112 -1.9081 -1.1062 1.6524 -1.2884 -0.5338 -8.0685 -0.1085 -1.2805 -1.7097 3.0992 -1.4406 -11.0227 1.0572 -0.8133 -3.2109 -0.0000 -0.0000 0.0000 -80.7878 15.0051 43.1666 125.9279 -54.5114 -90.5410 -0.0000 0.0000 -29.1019 36.1024 11.7102 8.4195 -7.1250 0.0000 -0.0000 8.2602 44.2108 -0.1620 -0.0000 -0.0000 0.0000 78.7781 -11.9938 46.5961 -94.3965 59.9268 -63.8066 0.0000 -0.0000 -1.6174 -36.6998 28.1174 -19.3553 7.1250 -0.0000 -0.0000 -3.5861 3.6426 -3.8140
